# xmcd
#
# Track frame offsets:
#	150
#	15788
#	35363
#	50345
#	65929
#	86524
#	101879
#	117711
#	130613
#	147638
#
# Disc length: 2206 seconds
# Revision: 10
# Processed by: cddbd v1.5.2PL0 Copyright (c) Steve Scherf et al.
# Submitted via: dBpowerAMP V12.0
#
DISCID=8c089c0a
DTITLE=Patty Loveless - The Trouble With the Truth
DYEAR=1996
DGENRE=Country
TTITLE0=Tear Stained Letter
TTITLE1=The Trouble With the Truth
TTITLE2=I Miss Who I Was (With You)
TTITLE3=Everybody’s Equal in the Eyes of Love
TTITLE4=Lonely Too Long
TTITLE5=You Can Feel Bad
TTITLE6=A Thousand Times a Day
TTITLE7=She Drew a Broken Heart
TTITLE8=To Feel That Way at All
TTITLE9=Someday I Will Lead the Parade
EXTD=
EXTT0=
EXTT1=
EXTT2=
EXTT3=
EXTT4=
EXTT5=
EXTT6=
EXTT7=
EXTT8=
EXTT9=
PLAYORDER=
